<svg width="44" height="44" viewBox="0 0 44 44" fill="none" xmlns="http://www.w3.org/2000/svg">
<path d="M37.271 39.7777C37.271 32.8977 30.4265 27.3333 21.9999 27.3333C13.5732 27.3333 6.72876 32.8977 6.72876 39.7777M21.9999 21.9999C24.3574 21.9999 26.6183 21.0634 28.2853 19.3965C29.9523 17.7295 30.8888 15.4685 30.8888 13.1111C30.8888 10.7536 29.9523 8.49265 28.2853 6.82566C26.6183 5.15867 24.3574 4.22217 21.9999 4.22217C19.6424 4.22217 17.3815 5.15867 15.7145 6.82566C14.0475 8.49265 13.111 10.7536 13.111 13.1111C13.111 15.4685 14.0475 17.7295 15.7145 19.3965C17.3815 21.0634 19.6424 21.9999 21.9999 21.9999V21.9999Z" stroke="black" stroke-opacity="0.9" stroke-width="2" stroke-linecap="round" stroke-linejoin="round"/>
</svg>
